<svg width="151" height="25" viewBox="0 0 151 25" fill="none" xmlns="http://www.w3.org/2000/svg">
<path fill-rule="evenodd" clip-rule="evenodd" d="M0 14.9606V10.2804L11.6582 0H16.9854L0 14.9606Z" fill="#B19777"/>
<path fill-rule="evenodd" clip-rule="evenodd" d="M25.0755 7.38916L28.3652 10.3105V10.3206V14.9807L22.392 9.71412L25.0755 7.38916Z" fill="#B19777"/>
<path fill-rule="evenodd" clip-rule="evenodd" d="M14.1528 12.3931L0 24.7356V20.2474L23.0679 0H28.3653V5.64056L25.165 2.80006L22.4617 5.15535L19.8279 7.44999L16.8065 10.0883L14.1528 12.3931Z" fill="#B19777"/>
<path fill-rule="evenodd" clip-rule="evenodd" d="M19.4005 12.312L28.3653 20.0147V24.4726L16.7568 14.6066L19.4005 12.312Z" fill="#B19777"/>
<path fill-rule="evenodd" clip-rule="evenodd" d="M0 0V5.64056L6.37076 0H0Z" fill="#B19777"/>
<path d="M36.9226 22.0563V2.375H40.4509V22.0563H36.9226Z" fill="white"/>
<path d="M44.168 22.0563V2.375H46.921L57.5655 16.9616L56.1343 17.2548V2.375H59.6625V22.0563H56.8797L46.4042 7.36861L47.7062 7.07547V22.0563H44.168Z" fill="white"/>
<path d="M63.4094 22.0563V2.375H66.1625L76.8069 16.9616L75.3757 17.2548V2.375H78.9139V22.0563H76.1311L65.6457 7.36861L66.9476 7.07547V22.0563H63.4094Z" fill="white"/>
<path d="M92.1922 22.3797C90.771 22.3797 89.4491 22.127 88.2167 21.6114C86.9843 21.0959 85.9109 20.3883 84.9965 19.4684C84.0822 18.5485 83.3666 17.477 82.8498 16.2337C82.3429 14.9903 82.0845 13.6459 82.0845 12.2004C82.0845 10.7346 82.3329 9.39021 82.8398 8.15697C83.3467 6.92373 84.0524 5.85222 84.9667 4.93235C85.8811 4.01247 86.9545 3.30487 88.1869 2.80955C89.4193 2.30413 90.7511 2.06152 92.1823 2.06152C93.6234 2.06152 94.9552 2.31424 96.1777 2.82977C97.4101 3.34531 98.4835 4.0529 99.3978 4.95256C100.312 5.86233 101.028 6.93383 101.545 8.16708C102.051 9.40032 102.31 10.7447 102.31 12.2105C102.31 13.656 102.051 15.0004 101.535 16.2438C101.018 17.4871 100.292 18.5688 99.378 19.4785C98.4636 20.3984 97.3902 21.106 96.1677 21.6215C94.9552 22.1168 93.6234 22.3797 92.1922 22.3797ZM92.1922 19.0944C93.1463 19.0944 94.021 18.9225 94.8161 18.5789C95.6112 18.2352 96.3069 17.7601 96.9032 17.1434C97.4995 16.5268 97.9567 15.799 98.2847 14.9499C98.6027 14.1008 98.7618 13.191 98.7618 12.2004C98.7618 11.2097 98.6027 10.3 98.2847 9.47108C97.9667 8.63207 97.5095 7.90425 96.9032 7.27752C96.3069 6.6508 95.6112 6.17569 94.8161 5.84211C94.021 5.50853 93.1463 5.33669 92.1922 5.33669C91.258 5.33669 90.3933 5.50853 89.5982 5.84211C88.8031 6.17569 88.1074 6.6609 87.511 7.27752C86.9147 7.90425 86.4476 8.63207 86.1196 9.47108C85.7916 10.3101 85.6227 11.2199 85.6227 12.2004C85.6227 13.191 85.7916 14.1008 86.1196 14.9499C86.4476 15.799 86.9147 16.5268 87.511 17.1434C88.1074 17.7601 88.8031 18.2352 89.5982 18.5789C90.3933 18.9225 91.258 19.0944 92.1922 19.0944Z" fill="white"/>
<path d="M110.112 22.0563L103.363 2.375H107.21L112.507 18.67H111.752L117.049 2.375H120.895L114.167 22.0563H110.112Z" fill="white"/>
<path d="M120.289 22.0563L126.968 2.375H131.54L138.219 22.0563H134.372L132.991 17.8309H125.507L124.106 22.0563H120.289ZM126.531 14.6569H131.987L128.767 4.85159H129.751L126.531 14.6569Z" fill="white"/>
<path d="M142.502 22.0563V5.54908H137.493V2.375H151V5.54908H146.06V22.0563H142.502Z" fill="white"/>
</svg>
